PathFileType	4	(X/Y/Z)	OpenSim_Sub04_CSStiffKnee_Magnet.trc
DataRate	CameraRate	NumFrames	NumMarkers	Units	OrigDataRate	OrigDataStartFrame	OrigNumFrames
100	100	30	8	m	100	3707	7413
Frame#	Time	torso_imu_offset_imu	pelvis_imu_offset_imu	tibia_r_imu_offset_imu	femur_r_imu_offset_imu	tibia_l_imu_offset_imu	femur_l_imu_offset_imu	toes_r_imu_offset_imu	toes_l_imu_offset_imu
				X1	Y1	Z1	X2	Y2	Z2	X3	Y3	Z3	X4	Y4	Z4	X5	Y5	Z5	X6	Y6	Z6	X7	Y7	Z7	X8		Y8	Z8	

3707	37.06000000	0.92337754	0.27223598	-0.10589561	-0.57178319	0.21877099	-0.72085165	-0.37032093	-0.74121226	-0.09568469	-0.85108091	-0.01217906	-0.10001389	-0.52957795	0.55578977	0.36502174	-0.29172245	0.19940126	0.61558121	-0.79241608	-0.31769202	-0.17105361	-0.71580861	-0.38712128	-0.24857165
3708	37.07000000	0.92582170	0.27350273	-0.10188741	-0.57223970	0.22491296	-0.72142508	-0.40944489	-0.71603265	-0.10084086	-0.85337482	-0.00896764	-0.09893571	-0.51988893	0.55755629	0.36293164	-0.28805470	0.20718828	0.62194358	-0.78161660	-0.29691641	-0.20591129	-0.71496806	-0.38721040	-0.24210561
3709	37.08000000	0.91861634	0.27834607	-0.10774207	-0.57084116	0.21954169	-0.72112951	-0.43963569	-0.69589173	-0.10678612	-0.85937815	-0.00760217	-0.09848011	-0.51777445	0.56401292	0.36374858	-0.27998486	0.21419511	0.62374040	-0.76523283	-0.27068749	-0.23605390	-0.71266904	-0.38720427	-0.24192291
3710	37.09000000	0.91957765	0.27639389	-0.10351563	-0.56720871	0.22100456	-0.72313106	-0.46780920	-0.67816233	-0.11767329	-0.85615296	0.00438916	-0.09924796	-0.51294450	0.56299810	0.36184490	-0.26680874	0.22028517	0.62638093	-0.74965827	-0.24263182	-0.25910246	-0.70912109	-0.38907188	-0.23627341
3711	37.10000000	0.92012615	0.27571504	-0.10427037	-0.56275441	0.22537223	-0.72151893	-0.50102527	-0.65557890	-0.12751835	-0.85514243	0.00644749	-0.10251426	-0.51290960	0.57383839	0.35893007	-0.26743975	0.22819834	0.63089826	-0.73411662	-0.22576898	-0.28012089	-0.70406281	-0.38640806	-0.23863006
3712	37.11000000	0.92132909	0.27900175	-0.10381289	-0.55977934	0.22050800	-0.72866471	-0.52210585	-0.62914859	-0.14263094	-0.85361924	0.01105538	-0.09994226	-0.50719476	0.58373445	0.35847617	-0.26175436	0.23816320	0.63449849	-0.72110025	-0.20424286	-0.29914428	-0.70196003	-0.38791864	-0.24851620
3713	37.12000000	0.92498613	0.27557195	-0.10840464	-0.55670201	0.21538201	-0.73037675	-0.54451952	-0.59978712	-0.15221668	-0.85379290	0.01461715	-0.10084521	-0.50034975	0.58495317	0.36013026	-0.25479001	0.23996646	0.63514241	-0.71423911	-0.18838177	-0.31402853	-0.70472753	-0.38414451	-0.25122009
3714	37.13000000	0.91810340	0.27280455	-0.10648988	-0.55001922	0.21172804	-0.73196962	-0.56838150	-0.57545882	-0.16063502	-0.85062923	0.01541128	-0.10208729	-0.49828376	0.59287342	0.35903018	-0.25383415	0.25037976	0.63215007	-0.70841684	-0.17112838	-0.33078745	-0.70236640	-0.38221197	-0.25615451
3715	37.14000000	0.91506295	0.27713923	-0.10321143	-0.54748732	0.21533594	-0.73338425	-0.59138767	-0.55548071	-0.17257518	-0.84843189	0.01729154	-0.10234828	-0.49238673	0.60087950	0.35788600	-0.24299638	0.25470172	0.63958195	-0.70376398	-0.15460056	-0.35248762	-0.70012338	-0.38455676	-0.25287190
3716	37.15000000	0.92016165	0.27452570	-0.10350888	-0.54830101	0.21057883	-0.73946959	-0.61160630	-0.52524162	-0.17927720	-0.85216501	0.02053212	-0.10033543	-0.48437127	0.60533710	0.35516169	-0.23351544	0.26344681	0.63962003	-0.69994695	-0.14279135	-0.36826771	-0.70012391	-0.38120529	-0.26083909
3717	37.16000000	0.92211274	0.27104830	-0.10308641	-0.54523386	0.20089909	-0.74315245	-0.62938188	-0.50195436	-0.18484500	-0.85131309	0.02736827	-0.10156800	-0.47588643	0.61256466	0.35006232	-0.22812610	0.27718955	0.63080690	-0.68826693	-0.12322602	-0.38925922	-0.70386155	-0.37773081	-0.26452421
3718	37.17000000	0.92087651	0.27206131	-0.10612152	-0.54033700	0.19711162	-0.74449572	-0.64236711	-0.48058992	-0.18719564	-0.85008515	0.02551519	-0.10007172	-0.47503560	0.62038334	0.35323807	-0.22119647	0.28111218	0.63653395	-0.68536266	-0.10695289	-0.40410906	-0.70403550	-0.37641672	-0.27026910
3719	37.18000000	0.92506364	0.27108048	-0.10681416	-0.53729613	0.19069104	-0.74145681	-0.65648619	-0.46424120	-0.18828964	-0.85064432	0.03198970	-0.09534179	-0.46824715	0.62675858	0.35047247	-0.21549853	0.29110493	0.63960452	-0.67619813	-0.09823385	-0.41224491	-0.70505839	-0.37008454	-0.27481849
3720	37.19000000	0.92154026	0.27488719	-0.10666815	-0.53477663	0.18849158	-0.74341442	-0.66647287	-0.44762506	-0.19350018	-0.85101949	0.03667372	-0.09906210	-0.46017827	0.63313133	0.34426111	-0.20678626	0.29421607	0.64445963	-0.66904822	-0.09759234	-0.42421495	-0.71156591	-0.36973538	-0.27110043
3721	37.20000000	0.92146852	0.27268281	-0.10743909	-0.53480946	0.17859856	-0.74913040	-0.67519866	-0.43483307	-0.19443983	-0.84896334	0.03833795	-0.09779875	-0.45741815	0.64134131	0.34512908	-0.20294946	0.30224314	0.64255461	-0.67051630	-0.09856425	-0.43779611	-0.70969372	-0.36737275	-0.26910059
3722	37.21000000	0.92413682	0.26708021	-0.10331725	-0.53757332	0.17407135	-0.74678916	-0.68448321	-0.42551453	-0.19219206	-0.85039937	0.04150353	-0.09687153	-0.44911874	0.65004525	0.33708333	-0.19780411	0.31128367	0.64116722	-0.66150377	-0.09940420	-0.44381810	-0.71854520	-0.36009775	-0.26858511
3723	37.22000000	0.92507716	0.27075129	-0.10445158	-0.53716988	0.16856757	-0.74879449	-0.68840350	-0.41079363	-0.19929682	-0.84809373	0.04471087	-0.09862368	-0.43664055	0.66069694	0.33708413	-0.19615843	0.31594413	0.64620326	-0.65669012	-0.10132437	-0.44423852	-0.72514878	-0.35258897	-0.27561740
3724	37.23000000	0.92483464	0.26892366	-0.10789315	-0.53280938	0.16836514	-0.75136763	-0.68854880	-0.40766663	-0.20467502	-0.84949362	0.04767848	-0.08875438	-0.43158643	0.66876208	0.33155279	-0.19037431	0.33097997	0.63420201	-0.65954131	-0.10485566	-0.44039783	-0.73503822	-0.35229828	-0.27347206
3725	37.24000000	0.92293678	0.27024637	-0.11155218	-0.53125349	0.16564878	-0.74931853	-0.68208857	-0.40990720	-0.20627063	-0.84919127	0.05026189	-0.08366128	-0.41885041	0.67694926	0.32554083	-0.18904013	0.33790334	0.63413385	-0.66717009	-0.10725988	-0.42457573	-0.74780168	-0.35108725	-0.26054915
3726	37.25000000	0.91803937	0.26918785	-0.11362288	-0.53009046	0.15878784	-0.74728099	-0.68280132	-0.41792425	-0.19803853	-0.84645180	0.05686932	-0.07647700	-0.40404130	0.68306933	0.32339964	-0.18556727	0.34298796	0.63251901	-0.68061564	-0.10455952	-0.40586384	-0.74803630	-0.34719742	-0.25510184
3727	37.26000000	0.92231273	0.26843116	-0.11382023	-0.52779756	0.15377674	-0.75209500	-0.68114919	-0.43303429	-0.19058162	-0.84920861	0.05924496	-0.06693866	-0.39417118	0.69779299	0.31890060	-0.17782099	0.35248110	0.62545734	-0.69566136	-0.10209946	-0.37619848	-0.75555681	-0.34566918	-0.24371677
3728	37.27000000	0.92605539	0.26852620	-0.11978455	-0.52333424	0.14841247	-0.75668170	-0.66294346	-0.45436313	-0.18011984	-0.85582158	0.06772135	-0.06069074	-0.38290824	0.70755558	0.31479318	-0.17786785	0.36215788	0.62486248	-0.70055090	-0.10976181	-0.35807720	-0.76405989	-0.34313775	-0.22965286
3729	37.28000000	0.91951535	0.26772277	-0.12250066	-0.51411627	0.14451182	-0.75756126	-0.65059360	-0.47506071	-0.15791279	-0.84948224	0.06942457	-0.05471232	-0.37257141	0.71530071	0.31127951	-0.17523542	0.37300371	0.61780933	-0.70573349	-0.12511902	-0.34312234	-0.77547981	-0.34274082	-0.20935900
3730	37.29000000	0.91756307	0.26401594	-0.12215827	-0.51122641	0.14085665	-0.75404410	-0.64545700	-0.49452720	-0.13788004	-0.84604032	0.07567504	-0.04351890	-0.35906781	0.72415557	0.30758162	-0.17325404	0.37611303	0.60971605	-0.71206198	-0.13435502	-0.32960402	-0.78342492	-0.34115857	-0.18485161
3731	37.30000000	0.92452122	0.25871194	-0.12039226	-0.50863379	0.14215856	-0.76140848	-0.63568111	-0.50677112	-0.12723827	-0.84814621	0.07658960	-0.04101957	-0.34169300	0.73182423	0.30920196	-0.17362343	0.38528321	0.60246693	-0.71476669	-0.14098176	-0.32190698	-0.79148686	-0.33356690	-0.16243991
3732	37.31000000	0.92453382	0.26222830	-0.12882869	-0.50774676	0.14155315	-0.76725185	-0.62585923	-0.51581922	-0.11547016	-0.84777730	0.07186515	-0.03992905	-0.32452439	0.73922924	0.30240792	-0.17644090	0.39429244	0.59035007	-0.71369066	-0.15052039	-0.31577830	-0.80141519	-0.33616608	-0.13261925
3733	37.32000000	0.92838679	0.25970764	-0.13199438	-0.51033328	0.14168630	-0.76498490	-0.61740165	-0.53354166	-0.10210284	-0.84616893	0.06600233	-0.03596760	-0.30470318	0.74743244	0.30257159	-0.18243290	0.39609744	0.58685640	-0.71372027	-0.15283601	-0.31067820	-0.80365938	-0.33897372	-0.10346049
3734	37.33000000	0.92827181	0.25715475	-0.13140504	-0.51299045	0.13519493	-0.76001525	-0.60692846	-0.54861305	-0.09147086	-0.84548825	0.05249091	-0.03124205	-0.28874540	0.75358367	0.30427755	-0.19042424	0.39915363	0.58295052	-0.71607067	-0.15550834	-0.30504848	-0.81097850	-0.33453719	-0.06780238
3735	37.34000000	0.92735942	0.26175253	-0.13234293	-0.51078510	0.13465599	-0.76136047	-0.59641270	-0.56236883	-0.08614808	-0.85137648	0.04513405	-0.02145112	-0.27553322	0.75995608	0.30350265	-0.19946913	0.39665614	0.57878045	-0.71814455	-0.15600999	-0.30257616	-0.81538180	-0.33027013	-0.03466155
3736	37.35000000	0.92608178	0.25563791	-0.13538724	-0.50858817	0.14393105	-0.76447866	-0.58399916	-0.57420040	-0.08596508	-0.85235201	0.03281057	-0.01633023	-0.25574887	0.77072400	0.30270640	-0.20746978	0.40259868	0.57330681	-0.71958341	-0.15576599	-0.29998560	-0.81456550	-0.31801315	0.00456985
